<svg width="81" height="80" viewBox="0 0 81 80" fill="none" xmlns="http://www.w3.org/2000/svg">
<rect x="0.5" width="80" height="80" rx="20" fill="#5458EA"/>
<path d="M58.5 54V50.7081C58.5 49.0725 57.5042 47.6017 55.9856 46.9942L51.9173 45.3669C49.9857 44.5943 47.7844 45.4312 46.854 47.292L46.5 48C46.5 48 41.5 47 37.5 43C33.5 39 32.5 34 32.5 34L33.208 33.646C35.0688 32.7156 35.9057 30.5143 35.1331 28.5827L33.5058 24.5144C32.8983 22.9958 31.4275 22 29.7919 22H26.5C24.2909 22 22.5 23.7909 22.5 26C22.5 43.6731 36.8269 58 54.5 58C56.7091 58 58.5 56.2091 58.5 54Z" fill="white" fill-opacity="0.5" stroke="white" stroke-opacity="0.7" stroke-linejoin="round"/>
</svg>
