<svg width="20" height="18" viewBox="0 0 20 18" fill="none" xmlns="http://www.w3.org/2000/svg">
<path d="M20 5.70906C20 7.12906 19.45 8.45906 18.45 9.45906L10.6 17.3091C10.56 17.3491 10.45 17.4391 10.4 17.4691C10.28 17.5491 10.14 17.5891 10 17.5891C9.86 17.5891 9.71 17.5491 9.59 17.4691C9.53 17.4291 9.48 17.3891 9.42 17.3291L1.56 9.45906C0.549998 8.45906 0 7.12906 0 5.70906C0 4.28906 0.549998 2.95906 1.56 1.95906C3.63 -0.100937 6.99 -0.100937 9.06 1.95906L10 2.90906L10.95 1.95906C13.02 -0.100937 16.38 -0.100937 18.44 1.95906C19.45 2.95906 20 4.28906 20 5.70906Z" fill="#F34545"/>
</svg>
