<svg width="110" height="94" viewBox="0 0 110 94" fill="none" xmlns="http://www.w3.org/2000/svg">
<path d="M109.167 29.1793C109.167 36.871 106.188 44.0751 100.771 49.4918L58.25 92.0126C58.0334 92.2293 57.4376 92.7168 57.1667 92.8793C56.5167 93.3126 55.7584 93.5292 55 93.5292C54.2417 93.5292 53.4292 93.3126 52.7792 92.8793C52.4542 92.6626 52.1834 92.4459 51.8584 92.1209L9.28336 49.4918C3.81253 44.0751 0.833374 36.871 0.833374 29.1793C0.833374 21.4876 3.81253 14.2835 9.28336 8.8668C20.4959 -2.29154 38.6959 -2.29154 49.9084 8.8668L55 14.0126L60.1459 8.8668C71.3584 -2.29154 89.5584 -2.29154 100.717 8.8668C106.188 14.2835 109.167 21.4876 109.167 29.1793Z" fill="url(#paint0_linear_643_10059)"/>
<defs>
<linearGradient id="paint0_linear_643_10059" x1="55" y1="0.498047" x2="55" y2="93.5292" gradientUnits="userSpaceOnUse">
<stop stop-color="#F34545"/>
<stop offset="1" stop-color="#FFADAD"/>
</linearGradient>
</defs>
</svg>
